<svg height="125" viewBox="0 0 400 125" width="400" xmlns="http://www.w3.org/2000/svg"><path d="m68.878471 10.34938 17.127953 9.925873 17.127945 9.941849c2.33918 1.351379 4.165794 3.18531 5.415359 5.357109v.016075c1.265503 2.171799 1.938843 4.697464 1.938843 7.384041v39.735581c0 2.686584-.67334 5.196159-1.938843 7.384117-1.249565 2.172043-3.076179 4.021728-5.415359 5.373176l-17.127945 9.925774-17.127953 9.941704h-.015922c-2.32325 1.351448-4.822403 2.027176-7.322357 2.027176-2.499153 0-4.9991-.675728-7.338276-2.027176l-17.143872-9.941704-17.127948-9.925774c-2.323258-1.351448-4.165866-3.201133-5.4156-5.373176-1.249741-2.187958-1.922679-4.697533-1.922679-7.384117v-39.735581c0-2.686577.672938-5.212242 1.922679-7.384041v-.016075c1.249734-2.171799 3.092342-4.00573 5.4156-5.357109l17.127948-9.941849 17.143872-9.925873c2.323253-1.351333 4.823204-2.027 7.338276-2.027 2.499954 0 4.999107.675667 7.338279 2.027z"/><g fill="#fff"><path d="m69.071083 8.813377 17.670761 10.199166 17.670754 10.215728c2.413192 1.388535 4.297912 3.273018 5.58728 5.504586v.016472c1.306084 2.231651 2.000122 4.826866 2.000122 7.587394v40.829796c0 2.760529-.694038 5.339676-2.000122 7.587311-1.289368 2.231735-3.174088 4.132362-5.58728 5.521217l-17.670754 10.198777-17.670761 10.216285h-.016724c-2.39727 1.388054-4.97602 2.082886-7.554752 2.082886-2.578751 0-5.156696-.694832-7.57069-2.082886l-17.687233-10.216285-17.670843-10.198777c-2.396877-1.388855-4.297829-3.289482-5.587197-5.521217-1.289374-2.247635-1.983644-4.826782-1.983644-7.587311v-40.829796c0-2.760528.69427-5.355743 1.983644-7.587394v-.016472c1.289368-2.231568 3.19032-4.116051 5.587197-5.504586l17.670843-10.215728 17.687233-10.199166c2.397278-1.388542 4.976017-2.082809 7.57069-2.082809 2.578732 0 5.157482.694267 7.571476 2.082809zm16.050293 13.009285-17.670769-10.21566c-1.900634-1.091011-3.934173-1.636512-5.951-1.636512-2.032753 0-4.066307.545501-5.950218 1.636512l-17.687477 10.21566-17.687632 10.19925c-1.884392 1.09095-3.372185 2.578666-4.397001 4.330864-1.008414 1.752273-1.537373 3.785499-1.537373 5.983947v40.829796c0 2.198532.528959 4.231766 1.537373 5.967636 1.024816 1.751801 2.512609 3.23935 4.397001 4.330544l17.687632 10.216278 17.687477 10.198776c1.883911 1.091194 3.917465 1.636391 5.950218 1.636391 2.016827 0 4.050366-.545197 5.951-1.636391l17.670769-10.198776 17.68747-10.216278c1.901428-1.091194 3.388977-2.578743 4.397399-4.330544 1.008416-1.73587 1.553612-3.769104 1.553612-5.967636v-40.829796c0-2.198448-.545196-4.231674-1.553612-5.983947-1.008422-1.752198-2.495971-3.239914-4.397399-4.330864zm-43.953258 20.64634c5.206832-5.190514 12.397075-8.413933 20.331489-8.413933 7.935207 0 15.10873 3.223419 20.316364 8.413933 5.206826 5.207001 8.413544 12.397705 8.413544 20.332206 0 7.934571-3.206718 15.125206-8.413544 20.31572-5.207634 5.207001-12.381157 8.430428-20.316364 8.430428-7.934414 0-15.124657-3.223427-20.331489-8.430428-5.190835-5.190514-8.414265-12.381149-8.414265-20.31572 0-7.934501 3.22343-15.125205 8.414265-20.332206zm21.819831 56.797874c5.736111-.231613 11.422085-1.801941 16.596287-4.710983l3.802056 6.595695-16.332047 9.438683c-1.306084.744171-2.67823 1.223312-4.066296 1.421486zm-1.488342-5.09143c5.637409 0 10.927021-1.487549 15.505886-4.083008l1.074478 1.851288c-5.157493 2.893119-10.876884 4.331321-16.612999 4.331321-5.75283 0-11.488945-1.454918-16.662349-4.36396l1.057766-1.884712c4.612289 2.644798 9.934524 4.149071 15.637218 4.149071zm20.812214-47.342476c-8.083252-7.22374-33.556309-7.22374-41.623634 0-5.058079 4.281349-6.08297 15.158241-3.537018 23.588661 5.851517 19.423279 41.077637 19.836349 48.037063 1.917587 3.338829-8.612285 2.562027-20.894272-2.876411-25.506248zm-63.542563-8.694901c.958756-1.636543 2.347298-3.025085 4.116044-4.049896l16.530229-9.538002 16.513504-9.537933c1.769303-1.024895 3.669941-1.537339 5.570572-1.537339 1.884708 0 3.786129.512444 5.554638 1.537339l16.513512 9.537933h.016716l16.513511 9.538002c1.769303 1.024811 3.157372 2.413353 4.11644 4.049896.942345 1.636475 1.438202 3.520935 1.438202 5.587197v38.151885c0 2.049775-.495857 3.95073-1.438202 5.587189-.959068 1.636391-2.347137 3.025254-4.11644 4.049591l-14.100311 8.133385-6.446869-11.174553c1.471634-1.041054 2.859703-2.198547 4.133164-3.487915 2.7602-2.744049 4.991928-6.000511 6.578971-9.620621h1.751793c1.967492 0 3.620591-1.272812 4.132363-3.157287.810226-3.008538 1.256736-6.149277 1.256736-9.405732 0-3.256462-.44651-6.413749-1.256736-9.405731-.396363-1.487716-1.504265-2.595215-2.925766-2.991981v-7.918015c.859581-.380127 1.471641-1.239708 1.471641-2.248039 0-1.338966-1.091186-2.429985-2.446624-2.429985-1.355439 0-2.446625 1.091019-2.446625 2.429985 0 1.008331.612053 1.867912 1.471634 2.248039v7.752701h-1.008416c-1.587043-3.620109-3.818771-6.876564-6.578971-9.637093-5.67006-5.669883-13.522492-9.190834-22.184361-9.190834-8.677799 0-16.513519 3.520951-22.199486 9.190834-2.744293 2.760529-4.992416 6.016984-6.57938 9.637093h-1.752193c-1.967087 0-3.620106 1.256348-4.132517 3.157295-.809996 2.991982-1.239782 6.149269-1.239782 9.405731 0 3.256455.429786 6.397194 1.239782 9.405732.512411 1.884475 2.16543 3.157287 4.132517 3.157287h1.752193c1.586964 3.62011 3.835087 6.876572 6.57938 9.620621 1.239228 1.239792 2.578739 2.380005 4.016945 3.405136l-6.348163 11.257332-14.083601-8.133385c-1.768746-1.024337-3.157288-2.4132-4.099562-4.049591-.958756-1.636459-1.454607-3.537414-1.454607-5.587189v-38.151885c0-2.066262.495851-3.950722 1.438125-5.587197zm39.011065 6.215416c7.356579-.446358 15.257565.595024 20.134098 2.727493 3.223427 1.405022 5.240257 4.512726 5.934296 8.975937.413078 2.69439.413078 5.471478.214889 7.438565-.231613 2.512607-.776809 5.074787-1.68573 7.43864-1.454925 3.768944-4.512802 6.562508-8.348289 8.380837 4.248558-5.570725 4.629005-17.654286 2.248443-24.068039-2.429901-6.546021-8.595817-10.16613-18.497707-10.893433zm-18.215961 56.798103 16.332038 9.438683c1.289376.744171 2.677445 1.223312 4.066308 1.421486v-12.744881c-5.736123-.231613-11.422089-1.801941-16.596291-4.710983z" fill-rule="evenodd"/><path d="m379.376007 54.078003c.669006-1.746002 1.746002-3.057007 3.230988-3.901001 1.514007-.873001 3.203003-1.309998 5.037017-1.309998v7.802994c-2.125-.233002-4.047027.203003-5.735015 1.309998-1.688996 1.135009-2.53299 2.999008-2.53299 5.590011v12.984986h-6.988007v-27.163987h6.988007z"/><path d="m348.600983 60.425003h13.830017c-.378998-1.834-1.194-3.231003-2.446015-4.134003-1.251983-.901992-2.677978-1.339004-4.279998-1.339004-1.863007 0-3.434998.466003-4.65799 1.42601-1.222992.960999-2.037994 2.300995-2.446014 4.046997zm.117004 5.416c.931 3.405991 3.493012 5.123993 7.657013 5.123993 2.677979 0 4.686981-.903 6.056-2.707992l5.647979 3.231994c-2.678985 3.871994-6.608978 5.822998-11.820983 5.822998-4.483002 0-8.093018-1.367996-10.800995-4.076004-2.708008-2.707992-4.07602-6.14299-4.07602-10.247985 0-4.106003 1.33902-7.512009 4.018006-10.249009 2.678009-2.736999 6.114013-4.104995 10.306-4.104995 3.989013 0 7.278991 1.397003 9.869995 4.134002 2.591003 2.765992 3.872009 6.14299 3.872009 10.220002 0 .901992-.087006 1.862991-.261993 2.852996z"/><path d="m333.957001 49.391006h7.714996l-10.306976 27.163987h-7.977021l-10.335998-27.163987h7.716003l6.57901 19.011994z"/><path d="m302.687012 76.554993v-27.163987h7.016998v27.163987z"/><path d="m290.371979 54.078003c.640014-1.746002 1.718017-3.057007 3.231018-3.901001 1.514007-.873001 3.173981-1.309998 5.007995-1.309998v7.802994c-2.125-.233002-4.046997.203003-5.705993 1.309998-1.688996 1.135009-2.53302 2.999008-2.53302 5.590011v12.984986h-7.016999v-27.163987h7.016999z"/><path d="m258.666016 68.490005c1.425994 1.427002 3.201995 2.154999 5.385986 2.154999 2.18399 0 3.959991-.727997 5.386017-2.154999 1.39798-1.42601 2.096985-3.261001 2.096985-5.501998 0-2.242005-.699005-4.106003-2.096985-5.532013-1.426026-1.426987-3.202027-2.125992-5.386017-2.125992-2.183991 0-3.959992.699005-5.385986 2.125992-1.455994 1.42601-2.154999 3.290008-2.154999 5.532013 0 2.240997.699005 4.075988 2.154999 5.501998zm12.868988-28.037002 7.015991-1.921997v38.023987h-7.015991v-3.202988c-2.039002 2.649994-4.979004 3.959991-8.793 3.959991-3.639007 0-6.755004-1.397995-9.346008-4.162994-2.590988-2.766006-3.900986-6.143997-3.900986-10.160995 0-4.018006 1.309998-7.425003 3.900986-10.19101 2.591004-2.765991 5.707001-4.162994 9.346008-4.162994 3.813996 0 6.753998 1.339004 8.793 3.959991z"/><path d="m232.841003 57.106003c0 .727997.466004 1.311004 1.427002 1.776001.959992.436996 2.125.845001 3.522995 1.194 1.367997.348999 2.736008.785996 4.105011 1.309998 1.367997.524002 2.561997 1.397995 3.522995 2.621002.931 1.222 1.425995 2.764999 1.425995 4.628998 0 2.765991-1.048004 4.919998-3.11499 6.434005-2.096008 1.484986-4.688004 2.241989-7.803009 2.241989-5.561005 0-9.375-2.153991-11.383698-6.462997l6.055695-3.406998c.815002 2.328995 2.591003 3.522995 5.328003 3.522995 2.503998 0 3.755997-.785995 3.755997-2.328994 0-.727997-.494995-1.339005-1.455994-1.776001-.960999-.466004-2.125-.874009-3.494003-1.223008-1.367997-.348999-2.735993-.814987-4.134003-1.367996-1.367996-.524002-2.532989-1.397995-3.493988-2.563003-.960007-1.192994-1.42601-2.648987-1.42601-4.424988 0-2.679001.990005-4.804001 2.940002-6.318009 1.979996-1.542999 4.425995-2.328994 7.365998-2.328994 2.212997 0 4.222.494995 6.027008 1.513992 1.804992.990005 3.231994 2.416 4.279998 4.251007l-5.968002 3.261002c-.874008-1.863999-2.300995-2.766007-4.339004-2.766007-.901993 0-1.658997.203003-2.240998.582001-.611999.408005-.903.960998-.903 1.630005z"/><path d="m209.287201 57.106003c0 .727997.465805 1.311004 1.426605 1.776001.9608.436996 2.125397.845001 3.493805 1.194 1.368393.348999 2.7659.785996 4.134293 1.309998s2.533004 1.397995 3.493805 2.621002c.960693 1.222 1.455688 2.764999 1.455688 4.628998 0 2.765991-1.048096 4.919998-3.144394 6.434005-2.067093 1.484986-4.658401 2.241989-7.773605 2.241989-5.590088 0-9.375-2.153991-11.412995-6.462997l6.085007-3.406998c.786087 2.328995 2.562088 3.522995 5.327988 3.522995 2.503799 0 3.7267-.785995 3.7267-2.328994 0-.727997-.465897-1.339005-1.426697-1.776001-.9608-.466004-2.12529-.874009-3.493698-1.223008-1.368393-.348999-2.7659-.814987-4.134293-1.367996-1.368408-.524002-2.533005-1.397995-3.493805-2.563003-.9608-1.192994-1.455704-2.648987-1.455704-4.424988 0-2.679001.989899-4.804001 2.969697-6.318009 1.979812-1.542999 4.425399-2.328994 7.366012-2.328994 2.212692 0 4.19249.494995 6.026688 1.513992 1.805206.990005 3.231811 2.416 4.279907 4.251007l-5.968506 3.261002c-.873398-1.863999-2.329193-2.766007-4.338089-2.766007-.902603 0-1.6595.203003-2.271011.582001-.582199.408005-.873398.960998-.873398 1.630005z"/><path d="m177.814209 68.490005c1.397491 1.427002 3.202591 2.154999 5.3862 2.154999 2.154495 0 3.959595-.727997 5.3862-2.154999 1.42659-1.42601 2.154495-3.261001 2.154495-5.501998 0-2.242005-.727905-4.106003-2.154495-5.532013-1.426605-1.426987-3.231705-2.125992-5.3862-2.125992-2.183609 0-3.988709.699005-5.3862 2.125992-1.426712 1.42601-2.125412 3.290008-2.125412 5.532013 0 2.240997.6987 4.075988 2.125412 5.501998zm12.926895-19.098999h6.987503v27.163987h-6.987503v-3.202988c-2.096298 2.649994-5.066009 3.959991-8.850906 3.959991-3.639298 0-6.725495-1.397995-9.316696-4.162994-2.591202-2.766006-3.8723-6.143997-3.8723-10.160995 0-4.018006 1.281098-7.425003 3.8723-10.19101 2.591201-2.765991 5.677398-4.162994 9.316696-4.162994 3.784897 0 6.754608 1.339004 8.850906 3.959991z"/><path d="m155.046402 48.634003c3.115295 0 5.589996 1.018997 7.4534 3.056991 1.863296 2.009003 2.794998 4.746002 2.794998 8.123001v16.740998h-6.987503v-16.245987c0-1.630005-.407593-2.882004-1.222901-3.785004-.785995-.902008-1.892395-1.367996-3.348098-1.367996-1.601395 0-2.824204.523987-3.7267 1.571991-.87349 1.048004-1.339295 2.561996-1.339295 4.570999v15.255997h-6.98761v-16.245987c0-1.630005-.407592-2.882004-1.193695-3.785004-.786102-.902008-1.921493-1.367996-3.377304-1.367996-1.542999 0-2.794967.523987-3.726638 1.571991-.902573 1.048004-1.368409 2.561996-1.368409 4.570999v15.255997h-7.016647v-27.163987h7.016647v2.881989c1.630432-2.416 4.134247-3.638992 7.540757-3.638992 3.34819 0 5.793792 1.309997 7.395095 3.929992 1.8051-2.619995 4.512803-3.929992 8.093903-3.929992z"/><path d="m309.682983 38-6.98999 1.722v6.990006l6.98999-1.722001z"/></g></svg>