<?xml version="1.0" encoding="UTF-8"?>
<!-- Generated by Pixelmator Pro 3.7.1 -->
<svg width="400" height="125" viewBox="0 0 400 125" xmlns="http://www.w3.org/2000/svg">
    <g id="Group">
        <path id="Path" fill="#000000" stroke="none" d="M 68.878471 10.34938 L 86.006424 20.275253 L 103.134369 30.217102 C 105.473549 31.568481 107.300163 33.402412 108.549728 35.574211 L 108.549728 35.590286 C 109.815231 37.762085 110.488571 40.28775 110.488571 42.974327 L 110.488571 82.709908 C 110.488571 85.396492 109.815231 87.906067 108.549728 90.094025 C 107.300163 92.266068 105.473549 94.115753 103.134369 95.467201 L 86.006424 105.392975 L 68.878471 115.334679 L 68.862549 115.334679 C 66.539299 116.686127 64.040146 117.361855 61.540192 117.361855 C 59.041039 117.361855 56.541092 116.686127 54.201916 115.334679 L 37.058044 105.392975 L 19.930096 95.467201 C 17.606838 94.115753 15.76423 92.266068 14.514496 90.094025 C 13.264755 87.906067 12.591817 85.396492 12.591817 82.709908 L 12.591817 42.974327 C 12.591817 40.28775 13.264755 37.762085 14.514496 35.590286 L 14.514496 35.574211 C 15.76423 33.402412 17.606838 31.568481 19.930096 30.217102 L 37.058044 20.275253 L 54.201916 10.34938 C 56.525169 8.998047 59.02512 8.32238 61.540192 8.32238 C 64.040146 8.32238 66.539299 8.998047 68.878471 10.34938 Z"/>
        <path id="path1" fill="#ffffff" fill-rule="evenodd" stroke="none" d="M 69.071083 8.813377 L 86.741844 19.012543 L 104.412598 29.228271 C 106.82579 30.616806 108.71051 32.501289 109.999878 34.732857 L 109.999878 34.749329 C 111.305962 36.98098 112 39.576195 112 42.336723 L 112 83.166519 C 112 85.927048 111.305962 88.506195 109.999878 90.75383 C 108.71051 92.985565 106.82579 94.886192 104.412598 96.275047 L 86.741844 106.473824 L 69.071083 116.690109 L 69.054359 116.690109 C 66.657089 118.078163 64.078339 118.772995 61.499607 118.772995 C 58.920856 118.772995 56.342911 118.078163 53.928917 116.690109 L 36.241684 106.473824 L 18.570841 96.275047 C 16.173964 94.886192 14.273012 92.985565 12.983644 90.75383 C 11.69427 88.506195 11 85.927048 11 83.166519 L 11 42.336723 C 11 39.576195 11.69427 36.98098 12.983644 34.749329 L 12.983644 34.732857 C 14.273012 32.501289 16.173964 30.616806 18.570841 29.228271 L 36.241684 19.012543 L 53.928917 8.813377 C 56.326195 7.424835 58.904934 6.730568 61.499607 6.730568 C 64.078339 6.730568 66.657089 7.424835 69.071083 8.813377 Z M 85.121376 21.822662 L 67.450607 11.607002 C 65.549973 10.515991 63.516434 9.97049 61.499607 9.97049 C 59.466854 9.97049 57.4333 10.515991 55.549389 11.607002 L 37.861912 21.822662 L 20.17428 32.021912 C 18.289888 33.112862 16.802095 34.600578 15.777279 36.352776 C 14.768865 38.105049 14.239906 40.138275 14.239906 42.336723 L 14.239906 83.166519 C 14.239906 85.365051 14.768865 87.398285 15.777279 89.134155 C 16.802095 90.885956 18.289888 92.373505 20.17428 93.464699 L 37.861912 103.680977 L 55.549389 113.879753 C 57.4333 114.970947 59.466854 115.516144 61.499607 115.516144 C 63.516434 115.516144 65.549973 114.970947 67.450607 113.879753 L 85.121376 103.680977 L 102.808846 93.464699 C 104.710274 92.373505 106.197823 90.885956 107.206245 89.134155 C 108.214661 87.398285 108.759857 85.365051 108.759857 83.166519 L 108.759857 42.336723 C 108.759857 40.138275 108.214661 38.105049 107.206245 36.352776 C 106.197823 34.600578 104.710274 33.112862 102.808846 32.021912 L 85.121376 21.822662 Z M 41.168118 42.469002 C 46.37495 37.278488 53.565193 34.055069 61.499607 34.055069 C 69.434814 34.055069 76.608337 37.278488 81.815971 42.469002 C 87.022797 47.676003 90.229515 54.866707 90.229515 62.801208 C 90.229515 70.735779 87.022797 77.926414 81.815971 83.116928 C 76.608337 88.323929 69.434814 91.547356 61.499607 91.547356 C 53.565193 91.547356 46.37495 88.323929 41.168118 83.116928 C 35.977283 77.926414 32.753853 70.735779 32.753853 62.801208 C 32.753853 54.866707 35.977283 47.676003 41.168118 42.469002 Z M 62.987949 99.266876 C 68.72406 99.035263 74.410034 97.464935 79.584236 94.555893 L 83.386292 101.151588 L 67.054245 110.590271 C 65.748161 111.334442 64.376015 111.813583 62.987949 112.011757 L 62.987949 99.266876 Z M 61.499607 94.175446 C 67.137016 94.175446 72.426628 92.687897 77.005493 90.092438 L 78.079971 91.943726 C 72.922478 94.836845 67.203087 96.275047 61.466972 96.275047 C 55.714142 96.275047 49.978027 94.820129 44.804623 91.911087 L 45.862389 90.026375 C 50.474678 92.671173 55.796913 94.175446 61.499607 94.175446 Z M 82.311821 46.83297 C 74.228569 39.60923 48.755512 39.60923 40.688187 46.83297 C 35.630108 51.114319 34.605217 61.991211 37.151169 70.421631 C 43.002686 89.84491 78.228806 90.25798 85.188232 72.339218 C 88.527061 63.726933 87.750259 51.444946 82.311821 46.83297 Z M 18.769258 38.138069 C 19.728014 36.501526 21.116556 35.112984 22.885302 34.088173 L 39.415531 24.550171 L 55.929035 15.012238 C 57.698338 13.987343 59.598976 13.474899 61.499607 13.474899 C 63.384315 13.474899 65.285736 13.987343 67.054245 15.012238 L 83.567757 24.550171 L 83.584473 24.550171 L 100.097984 34.088173 C 101.867287 35.112984 103.255356 36.501526 104.214424 38.138069 C 105.156769 39.774544 105.652626 41.659004 105.652626 43.725266 L 105.652626 81.877151 C 105.652626 83.926926 105.156769 85.827881 104.214424 87.46434 C 103.255356 89.100731 101.867287 90.489594 100.097984 91.513931 L 85.997673 99.647316 L 79.550804 88.472763 C 81.022438 87.431709 82.410507 86.274216 83.683968 84.984848 C 86.444168 82.240799 88.675896 78.984337 90.262939 75.364227 L 92.014732 75.364227 C 93.982224 75.364227 95.635323 74.091415 96.147095 72.20694 C 96.957321 69.198402 97.403831 66.057663 97.403831 62.801208 C 97.403831 59.544746 96.957321 56.387459 96.147095 53.395477 C 95.750732 51.907761 94.64283 50.800262 93.221329 50.403496 L 93.221329 42.485481 C 94.08091 42.105354 94.69297 41.245773 94.69297 40.237442 C 94.69297 38.898476 93.601784 37.807457 92.246346 37.807457 C 90.890907 37.807457 89.799721 38.898476 89.799721 40.237442 C 89.799721 41.245773 90.411774 42.105354 91.271355 42.485481 L 91.271355 50.238182 L 90.262939 50.238182 C 88.675896 46.618073 86.444168 43.361618 83.683968 40.601089 C 78.013908 34.931206 70.161476 31.410255 61.499607 31.410255 C 52.821808 31.410255 44.986088 34.931206 39.300121 40.601089 C 36.555828 43.361618 34.307705 46.618073 32.720741 50.238182 L 30.968548 50.238182 C 29.001461 50.238182 27.348442 51.49453 26.836031 53.395477 C 26.026035 56.387459 25.596249 59.544746 25.596249 62.801208 C 25.596249 66.057663 26.026035 69.198402 26.836031 72.20694 C 27.348442 74.091415 29.001461 75.364227 30.968548 75.364227 L 32.720741 75.364227 C 34.307705 78.984337 36.555828 82.240799 39.300121 84.984848 C 40.539349 86.22464 41.87886 87.364853 43.317066 88.389984 L 36.968903 99.647316 L 22.885302 91.513931 C 21.116556 90.489594 19.728014 89.100731 18.78574 87.46434 C 17.826984 85.827881 17.331133 83.926926 17.331133 81.877151 L 17.331133 43.725266 C 17.331133 41.659004 17.826984 39.774544 18.769258 38.138069 Z M 57.780323 44.353485 C 65.136902 43.907127 73.037888 44.948509 77.914421 47.080978 C 81.137848 48.486 83.154678 51.593704 83.848717 56.056915 C 84.261795 58.751305 84.261795 61.528393 84.063606 63.49548 C 83.831993 66.008087 83.286797 68.570267 82.377876 70.93412 C 80.922951 74.703064 77.865074 77.496628 74.029587 79.314957 C 78.278145 73.744232 78.658592 61.660671 76.27803 55.246918 C 73.848129 48.700897 67.682213 45.080788 57.780323 44.353485 Z M 39.564362 101.151588 L 55.8964 110.590271 C 57.185776 111.334442 58.573845 111.813583 59.962708 112.011757 L 59.962708 99.266876 C 54.226585 99.035263 48.540619 97.464935 43.366417 94.555893 L 39.564362 101.151588 Z"/>
    </g>
    <path id="path2" fill="#000000" stroke="none" d="M 379.376007 54.078003 C 380.045013 52.332001 381.122009 51.020996 382.606995 50.177002 C 384.121002 49.304001 385.809998 48.867004 387.644012 48.867004 L 387.644012 56.669998 C 385.519012 56.436996 383.596985 56.873001 381.908997 57.979996 C 380.220001 59.115005 379.376007 60.979004 379.376007 63.570007 L 379.376007 76.554993 L 372.388 76.554993 L 372.388 49.391006 L 379.376007 49.391006 L 379.376007 54.078003 Z"/>
    <path id="path3" fill="#000000" stroke="none" d="M 348.600983 60.425003 L 362.431 60.425003 C 362.052002 58.591003 361.237 57.194 359.984985 56.291 C 358.733002 55.389008 357.307007 54.951996 355.704987 54.951996 C 353.84198 54.951996 352.269989 55.417999 351.046997 56.378006 C 349.824005 57.339005 349.009003 58.679001 348.600983 60.425003 Z M 348.717987 65.841003 C 349.648987 69.246994 352.210999 70.964996 356.375 70.964996 C 359.052979 70.964996 361.061981 70.061996 362.431 68.257004 L 368.078979 71.488998 C 365.399994 75.360992 361.470001 77.311996 356.257996 77.311996 C 351.774994 77.311996 348.164978 75.944 345.457001 73.235992 C 342.748993 70.528 341.380981 67.093002 341.380981 62.988007 C 341.380981 58.882004 342.720001 55.475998 345.398987 52.738998 C 348.076996 50.001999 351.513 48.634003 355.704987 48.634003 C 359.694 48.634003 362.983978 50.031006 365.574982 52.768005 C 368.165985 55.533997 369.446991 58.910995 369.446991 62.988007 C 369.446991 63.889999 369.359985 64.850998 369.184998 65.841003 L 348.717987 65.841003 Z"/>
    <path id="path4" fill="#000000" stroke="none" d="M 333.957001 49.391006 L 341.671997 49.391006 L 331.365021 76.554993 L 323.388 76.554993 L 313.052002 49.391006 L 320.768005 49.391006 L 327.347015 68.403 L 333.957001 49.391006 Z"/>
    <path id="path5" fill="#000000" stroke="none" d="M 302.687012 76.554993 L 302.687012 49.391006 L 309.70401 49.391006 L 309.70401 76.554993 L 302.687012 76.554993 Z"/>
    <path id="path6" fill="#000000" stroke="none" d="M 290.371979 54.078003 C 291.011993 52.332001 292.089996 51.020996 293.602997 50.177002 C 295.117004 49.304001 296.776978 48.867004 298.610992 48.867004 L 298.610992 56.669998 C 296.485992 56.436996 294.563995 56.873001 292.904999 57.979996 C 291.216003 59.115005 290.371979 60.979004 290.371979 63.570007 L 290.371979 76.554993 L 283.35498 76.554993 L 283.35498 49.391006 L 290.371979 49.391006 L 290.371979 54.078003 Z"/>
    <path id="path7" fill="#000000" stroke="none" d="M 258.666016 68.490005 C 260.09201 69.917007 261.868011 70.645004 264.052002 70.645004 C 266.235992 70.645004 268.011993 69.917007 269.438019 68.490005 C 270.835999 67.063995 271.535004 65.229004 271.535004 62.988007 C 271.535004 60.746002 270.835999 58.882004 269.438019 57.455994 C 268.011993 56.029007 266.235992 55.330002 264.052002 55.330002 C 261.868011 55.330002 260.09201 56.029007 258.666016 57.455994 C 257.210022 58.882004 256.511017 60.746002 256.511017 62.988007 C 256.511017 65.229004 257.210022 67.063995 258.666016 68.490005 Z M 271.535004 40.453003 L 278.550995 38.531006 L 278.550995 76.554993 L 271.535004 76.554993 L 271.535004 73.352005 C 269.496002 76.001999 266.556 77.311996 262.742004 77.311996 C 259.102997 77.311996 255.987 75.914001 253.395996 73.149002 C 250.805008 70.382996 249.49501 67.005005 249.49501 62.988007 C 249.49501 58.970001 250.805008 55.563004 253.395996 52.796997 C 255.987 50.031006 259.102997 48.634003 262.742004 48.634003 C 266.556 48.634003 269.496002 49.973007 271.535004 52.593994 L 271.535004 40.453003 Z"/>
    <path id="path8" fill="#000000" stroke="none" d="M 232.841003 57.106003 C 232.841003 57.834 233.307007 58.417007 234.268005 58.882004 C 235.227997 59.319 236.393005 59.727005 237.791 60.076004 C 239.158997 60.425003 240.527008 60.862 241.896011 61.386002 C 243.264008 61.910004 244.458008 62.783997 245.419006 64.007004 C 246.350006 65.229004 246.845001 66.772003 246.845001 68.636002 C 246.845001 71.401993 245.796997 73.556 243.730011 75.070007 C 241.634003 76.554993 239.042007 77.311996 235.927002 77.311996 C 230.365997 77.311996 226.552002 75.158005 224.543304 70.848999 L 230.598999 67.442001 C 231.414001 69.770996 233.190002 70.964996 235.927002 70.964996 C 238.431 70.964996 239.682999 70.179001 239.682999 68.636002 C 239.682999 67.908005 239.188004 67.296997 238.227005 66.860001 C 237.266006 66.393997 236.102005 65.985992 234.733002 65.636993 C 233.365005 65.287994 231.997009 64.822006 230.598999 64.268997 C 229.231003 63.744995 228.06601 62.871002 227.105011 61.705994 C 226.145004 60.513 225.679001 59.057007 225.679001 57.281006 C 225.679001 54.602005 226.669006 52.477005 228.619003 50.962997 C 230.598999 49.419998 233.044998 48.634003 235.985001 48.634003 C 238.197998 48.634003 240.207001 49.128998 242.012009 50.147995 C 243.817001 51.138 245.244003 52.563995 246.292007 54.399002 L 240.324005 57.660004 C 239.449997 55.796005 238.02301 54.893997 235.985001 54.893997 C 235.083008 54.893997 234.326004 55.097 233.744003 55.475998 C 233.132004 55.884003 232.841003 56.436996 232.841003 57.106003 Z"/>
    <path id="path9" fill="#000000" stroke="none" d="M 209.287201 57.106003 C 209.287201 57.834 209.753006 58.417007 210.713806 58.882004 C 211.674606 59.319 212.839203 59.727005 214.207611 60.076004 C 215.576004 60.425003 216.973511 60.862 218.341904 61.386002 C 219.710297 61.910004 220.874908 62.783997 221.835709 64.007004 C 222.796402 65.229004 223.291397 66.772003 223.291397 68.636002 C 223.291397 71.401993 222.243301 73.556 220.147003 75.070007 C 218.07991 76.554993 215.488602 77.311996 212.373398 77.311996 C 206.78331 77.311996 202.998398 75.158005 200.960403 70.848999 L 207.04541 67.442001 C 207.831497 69.770996 209.607498 70.964996 212.373398 70.964996 C 214.877197 70.964996 216.100098 70.179001 216.100098 68.636002 C 216.100098 67.908005 215.634201 67.296997 214.673401 66.860001 C 213.712601 66.393997 212.548111 65.985992 211.179703 65.636993 C 209.81131 65.287994 208.413803 64.822006 207.04541 64.268997 C 205.677002 63.744995 204.512405 62.871002 203.551605 61.705994 C 202.590805 60.513 202.095901 59.057007 202.095901 57.281006 C 202.095901 54.602005 203.0858 52.477005 205.065598 50.962997 C 207.04541 49.419998 209.490997 48.634003 212.43161 48.634003 C 214.644302 48.634003 216.6241 49.128998 218.458298 50.147995 C 220.263504 51.138 221.690109 52.563995 222.738205 54.399002 L 216.769699 57.660004 C 215.896301 55.796005 214.440506 54.893997 212.43161 54.893997 C 211.529007 54.893997 210.77211 55.097 210.160599 55.475998 C 209.5784 55.884003 209.287201 56.436996 209.287201 57.106003 Z"/>
    <path id="path10" fill="#000000" stroke="none" d="M 177.814209 68.490005 C 179.2117 69.917007 181.0168 70.645004 183.200409 70.645004 C 185.354904 70.645004 187.160004 69.917007 188.586609 68.490005 C 190.013199 67.063995 190.741104 65.229004 190.741104 62.988007 C 190.741104 60.746002 190.013199 58.882004 188.586609 57.455994 C 187.160004 56.029007 185.354904 55.330002 183.200409 55.330002 C 181.0168 55.330002 179.2117 56.029007 177.814209 57.455994 C 176.387497 58.882004 175.688797 60.746002 175.688797 62.988007 C 175.688797 65.229004 176.387497 67.063995 177.814209 68.490005 Z M 190.741104 49.391006 L 197.728607 49.391006 L 197.728607 76.554993 L 190.741104 76.554993 L 190.741104 73.352005 C 188.644806 76.001999 185.675095 77.311996 181.890198 77.311996 C 178.2509 77.311996 175.164703 75.914001 172.573502 73.149002 C 169.9823 70.382996 168.701202 67.005005 168.701202 62.988007 C 168.701202 58.970001 169.9823 55.563004 172.573502 52.796997 C 175.164703 50.031006 178.2509 48.634003 181.890198 48.634003 C 185.675095 48.634003 188.644806 49.973007 190.741104 52.593994 L 190.741104 49.391006 Z"/>
    <path id="path11" fill="#000000" stroke="none" d="M 155.046402 48.634003 C 158.161697 48.634003 160.636398 49.653 162.499802 51.690994 C 164.363098 53.699997 165.2948 56.436996 165.2948 59.813995 L 165.2948 76.554993 L 158.307297 76.554993 L 158.307297 60.309006 C 158.307297 58.679001 157.899704 57.427002 157.084396 56.524002 C 156.298401 55.621994 155.192001 55.156006 153.736298 55.156006 C 152.134903 55.156006 150.912094 55.679993 150.009598 56.727997 C 149.136108 57.776001 148.670303 59.289993 148.670303 61.298996 L 148.670303 76.554993 L 141.682693 76.554993 L 141.682693 60.309006 C 141.682693 58.679001 141.275101 57.427002 140.488998 56.524002 C 139.702896 55.621994 138.567505 55.156006 137.111694 55.156006 C 135.568695 55.156006 134.316727 55.679993 133.385056 56.727997 C 132.482483 57.776001 132.016647 59.289993 132.016647 61.298996 L 132.016647 76.554993 L 125 76.554993 L 125 49.391006 L 132.016647 49.391006 L 132.016647 52.272995 C 133.647079 49.856995 136.150894 48.634003 139.557404 48.634003 C 142.905594 48.634003 145.351196 49.944 146.952499 52.563995 C 148.757599 49.944 151.465302 48.634003 155.046402 48.634003 Z"/>
    <path id="path12" fill="#000000" stroke="none" d="M 309.682983 38 L 302.692993 39.722 L 302.692993 46.712006 L 309.682983 44.990005 L 309.682983 38 Z"/>
</svg>
