<svg width="1103" height="262" viewBox="0 0 1103 262" xmlns="http://www.w3.org/2000/svg" xmlns:xlink="http://www.w3.org/1999/xlink">
    <g id="Group">
        <g id="g34-copy">
            <path id="path36" fill="#ffffff" fill-rule="evenodd" stroke="none" d="M 1076.418091 104.136536 C 1078.484741 98.62587 1081.9021 94.491211 1086.66748 91.735199 C 1091.434082 88.977875 1096.743408 87.600525 1102.600708 87.600525 L 1102.600708 112.404541 C 1095.82605 111.60054 1089.767456 112.977875 1084.42749 116.537872 C 1079.088745 120.09787 1076.418091 126.012543 1076.418091 134.279205 L 1076.418091 175.445862 L 1054.19812 175.445862 L 1054.19812 89.321869 L 1076.418091 89.321869 Z"/>
        </g>
        <g id="g38-copy">
            <path id="path40" fill="#ffffff" fill-rule="evenodd" stroke="none" d="M 979.08313 141.514267 C 982.069824 152.306274 990.164551 157.703598 1003.369873 157.703598 C 1011.867188 157.703598 1018.297852 154.832932 1022.661865 149.091599 L 1040.573853 159.42627 C 1032.076538 171.714264 1019.56189 177.856934 1003.025879 177.856934 C 988.787231 177.856934 977.360474 173.551605 968.748535 164.938278 C 960.136475 156.326279 955.829834 145.475601 955.829834 132.383606 C 955.829834 119.408936 960.077881 108.586273 968.575195 99.916946 C 977.07251 91.246277 987.983154 86.911621 1001.303223 86.911621 C 1013.933838 86.911621 1024.353882 91.275604 1032.564453 100.002274 C 1040.775146 108.73027 1044.880493 119.522278 1044.880493 132.383606 C 1044.880493 135.254272 1044.593872 138.298279 1044.020508 141.514267 Z M 978.739136 124.28894 L 1022.661865 124.28894 C 1021.397827 118.43161 1018.785889 114.068939 1014.82312 111.198273 C 1010.861816 108.327606 1006.356445 106.892944 1001.303223 106.892944 C 995.331177 106.892944 990.393799 108.412933 986.489868 111.45694 C 982.585815 114.499603 980.003174 118.778275 978.739136 124.28894"/>
        </g>
        <g id="g42-copy">
            <path id="path44" fill="#ffffff" fill-rule="evenodd" stroke="none" d="M 932.316772 89.322418 L 956.775391 89.322418 L 924.048828 175.445068 L 898.72876 175.445068 L 866.002136 89.322418 L 890.462097 89.322418 L 911.331421 149.60907 Z"/>
        </g>
        <path id="path46-copy" fill="#ffffff" fill-rule="evenodd" stroke="none" d="M 833.102661 89.322693 L 855.322632 89.322693 L 855.322632 175.445343 L 833.102661 175.445343 Z"/>
        <g id="g48-copy">
            <path id="path50" fill="#ffffff" fill-rule="evenodd" stroke="none" d="M 794.003418 104.136536 C 796.070129 98.62587 799.487427 94.491211 804.252747 91.735199 C 809.01947 88.977875 814.328796 87.600525 820.186096 87.600525 L 820.186096 112.404541 C 813.411438 111.60054 807.352783 112.977875 802.012756 116.537872 C 796.674133 120.09787 794.003418 126.012543 794.003418 134.279205 L 794.003418 175.445862 L 771.783447 175.445862 L 771.783447 89.321869 L 794.003418 89.321869 Z"/>
        </g>
        <g id="g52-copy">
            <path id="path54" fill="#ffffff" fill-rule="evenodd" stroke="none" d="M 734.284363 60.928284 L 756.504395 54.874939 L 756.504395 175.445602 L 734.284363 175.445602 L 734.284363 165.284271 C 727.740356 173.665604 718.439026 177.856277 706.380371 177.856277 C 694.78302 177.856277 684.879028 173.464279 676.668396 164.680283 C 668.457703 155.894943 664.352356 145.130936 664.352356 132.384277 C 664.352356 119.638947 668.457703 108.872269 676.668396 100.088272 C 684.879028 91.302948 694.78302 86.91095 706.380371 86.91095 C 718.439026 86.91095 727.740356 91.101593 734.284363 99.485611 Z M 693.377686 149.866943 C 697.912354 154.404282 703.62439 156.670944 710.515076 156.670944 C 717.404358 156.670944 723.089722 154.404282 727.567017 149.866943 C 732.044373 145.330933 734.284363 139.504272 734.284363 132.384277 C 734.284363 125.26561 732.044373 119.437607 727.567017 114.902939 C 723.089722 110.365601 717.404358 108.09761 710.515076 108.09761 C 703.62439 108.09761 697.912354 110.365601 693.377686 114.902939 C 688.840393 119.437607 686.572388 125.26561 686.572388 132.384277 C 686.572388 139.504272 688.840393 145.330933 693.377686 149.866943"/>
        </g>
        <g id="g56-copy">
            <path id="path58" fill="#ffffff" fill-rule="evenodd" stroke="none" d="M 611.475037 113.781601 C 611.475037 116.078934 612.996399 117.944275 616.03772 119.38028 C 619.081726 120.814941 622.785706 122.077606 627.148376 123.170944 C 631.511047 124.260269 635.875061 125.637604 640.239075 127.304276 C 644.603027 128.968277 648.305725 131.753601 651.348389 135.657608 C 654.392395 139.5616 655.913696 144.441605 655.913696 150.298935 C 655.913696 159.140274 652.612366 165.942932 646.008362 170.70961 C 639.407043 175.473602 631.168396 177.856277 621.292358 177.856277 C 603.608398 177.856277 591.552368 171.024277 585.121704 157.360275 L 604.411072 146.50827 C 606.939026 153.972275 612.565735 157.704269 621.292358 157.704269 C 629.215027 157.704269 633.177734 155.236267 633.177734 150.298935 C 633.177734 148.001602 631.656372 146.133606 628.612366 144.700272 C 625.569702 143.264267 621.867065 141.972275 617.503052 140.824265 C 613.139038 139.674942 608.775024 138.240265 604.411072 136.517609 C 600.048401 134.797607 596.345703 132.068268 593.301697 128.337601 C 590.260376 124.604279 588.739075 119.925598 588.739075 114.297607 C 588.739075 105.800278 591.867065 99.112274 598.125732 94.233612 C 604.383057 89.352264 612.163025 86.91095 621.463074 86.91095 C 628.469727 86.91095 634.841736 88.489594 640.583069 91.649597 C 646.325745 94.806946 650.860352 99.313614 654.19104 105.169601 L 635.244385 115.504272 C 632.488403 109.646942 627.89502 106.720276 621.463074 106.720276 C 618.593689 106.720276 616.21106 107.350937 614.316406 108.613602 C 612.421692 109.877609 611.475037 111.600266 611.475037 113.781601"/>
        </g>
        <g id="g60-copy">
            <path id="path62" fill="#ffffff" fill-rule="evenodd" stroke="none" d="M 536.721558 113.781601 C 536.721558 116.078934 538.24292 117.944275 541.284241 119.38028 C 544.328247 120.814941 548.033569 122.077606 552.394897 123.170944 C 556.758911 124.260269 561.121582 125.637604 565.485596 127.304276 C 569.849609 128.968277 573.552246 131.753601 576.596252 135.657608 C 579.638916 139.5616 581.160217 144.441605 581.160217 150.298935 C 581.160217 159.140274 577.858887 165.942932 571.254944 170.70961 C 564.653564 175.473602 556.414917 177.856277 546.540222 177.856277 C 528.854919 177.856277 516.798889 171.024277 510.368225 157.360275 L 529.658936 146.50827 C 532.185608 153.972275 537.812256 157.704269 546.540222 157.704269 C 554.461609 157.704269 558.424255 155.236267 558.424255 150.298935 C 558.424255 148.001602 556.902893 146.133606 553.858887 144.700272 C 550.816223 143.264267 547.113586 141.972275 542.749573 140.824265 C 538.385559 139.674942 534.021606 138.240265 529.658936 136.517609 C 525.294922 134.797607 521.592224 132.068268 518.548279 128.337601 C 515.506897 124.604279 513.985596 119.925598 513.985596 114.297607 C 513.985596 105.800278 517.113586 99.112274 523.372253 94.233612 C 529.629578 89.352264 537.409607 86.91095 546.710938 86.91095 C 553.71759 86.91095 560.088257 88.489594 565.82959 91.649597 C 571.572266 94.806946 576.106934 99.313614 579.437561 105.169601 L 560.490906 115.504272 C 557.734924 109.646942 553.141602 106.720276 546.710938 106.720276 C 543.840271 106.720276 541.457581 107.350937 539.56427 108.613602 C 537.668274 109.877609 536.721558 111.600266 536.721558 113.781601"/>
        </g>
        <g id="g64-copy">
            <path id="path66" fill="#ffffff" fill-rule="evenodd" stroke="none" d="M 477.905701 89.322418 L 500.125732 89.322418 L 500.125732 175.445068 L 477.905701 175.445068 L 477.905701 165.283737 C 471.244385 173.66507 461.887024 177.855743 449.829712 177.855743 C 438.347046 177.855743 428.499023 173.46373 420.289734 164.679733 C 412.079041 155.895737 407.973694 145.131729 407.973694 132.383743 C 407.973694 119.638412 412.079041 108.873077 420.289734 100.089066 C 428.499023 91.303741 438.347046 86.911743 449.829712 86.911743 C 461.887024 86.911743 471.244385 91.102417 477.905701 99.486404 Z M 436.911072 149.867737 C 441.388367 154.403732 447.072388 156.67041 453.963074 156.67041 C 460.853699 156.67041 466.565735 154.403732 471.100403 149.867737 C 475.637695 145.330399 477.905701 139.503738 477.905701 132.383743 C 477.905701 125.265076 475.637695 119.437073 471.100403 114.902405 C 466.565735 110.366409 460.853699 108.097076 453.963074 108.097076 C 447.072388 108.097076 441.388367 110.366409 436.911072 114.902405 C 432.433716 119.437073 430.193726 125.265076 430.193726 132.383743 C 430.193726 139.503738 432.433716 145.330399 436.911072 149.867737"/>
        </g>
        <g id="g68-copy">
            <path id="path70" fill="#ffffff" fill-rule="evenodd" stroke="none" d="M 364.651855 86.911346 C 374.52652 86.911346 382.422516 90.12735 388.335846 96.558014 C 394.250519 102.987335 397.206512 111.600677 397.206512 122.39534 L 397.206512 175.445999 L 374.986511 175.445999 L 374.986511 123.945999 C 374.986511 118.778 373.722534 114.758011 371.198517 111.887344 C 368.671844 109.016678 365.111847 107.580673 360.518524 107.580673 C 355.466522 107.580673 351.53186 109.247345 348.721191 112.576675 C 345.907867 115.904678 344.499847 120.728668 344.499847 127.046005 L 344.499847 175.445999 L 322.279846 175.445999 L 322.279846 123.945999 C 322.279846 118.778 321.015869 114.758011 318.49054 111.887344 C 315.965179 109.016678 312.405182 107.580673 307.811859 107.580673 C 302.874512 107.580673 298.941193 109.247345 296.011871 112.576675 C 293.083862 115.904678 291.619873 120.728668 291.619873 127.046005 L 291.619873 175.445999 L 269.399841 175.445999 L 269.399841 89.322021 L 291.619873 89.322021 L 291.619873 98.452667 C 296.78653 90.757996 304.767853 86.911346 315.562531 86.911346 C 326.126526 86.911346 333.934509 91.046021 338.987854 99.312668 C 344.729187 91.046021 353.283844 86.911346 364.651855 86.911346"/>
        </g>
        <g id="g72-copy">
            <path id="path74" fill="#ffffff" fill-rule="evenodd" stroke="none" d="M 833.102356 58.609222 L 855.322388 53.135864 L 855.322388 75.354553 L 833.102356 80.829193 Z"/>
        </g>
        <g id="g1">
            <g id="g22-copy">
                <path id="path24" fill="#ffffff" fill-rule="evenodd" stroke="none" d="M 28.265917 65.882919 C 24.158882 68.25325 20.929947 71.47319 18.725307 75.278778 C 16.544697 79.061829 15.378669 83.467331 15.378669 88.237244 L 15.378669 176.753998 C 15.378669 181.523926 16.544697 185.929398 18.731316 189.70874 C 20.929947 193.518082 24.158882 196.737274 28.265917 199.108337 L 60.939926 217.972046 L 75.659103 191.857101 C 72.337929 189.49353 69.223747 186.857727 66.349472 183.983475 C 59.965096 177.599854 54.761749 170.035919 51.093403 161.648651 L 47.010361 161.648651 C 42.461685 161.648651 38.613331 158.703918 37.425541 154.313431 C 35.543362 147.360641 34.539318 140.044174 34.539318 132.495239 C 34.539318 124.946304 35.544117 117.631348 37.426296 110.677048 C 38.614841 106.285828 42.462406 103.341843 47.011116 103.341843 L 51.093403 103.341843 C 54.761749 94.954559 59.965851 87.391373 66.349472 81.007751 C 79.526192 67.83107 97.730759 59.68074 117.83699 59.68074 C 137.943939 59.68074 156.147781 67.83107 169.324478 81.007751 C 175.708099 87.391373 180.912201 94.954559 184.580551 103.341843 L 186.91864 103.341843 L 186.91864 85.357758 C 184.918732 84.484146 183.520233 82.488724 183.520233 80.166382 C 183.520233 77.038712 186.056305 74.502655 189.184006 74.502655 C 192.310959 74.502655 194.847015 77.038712 194.847015 80.166382 C 194.847015 82.488724 193.448502 84.483398 191.449341 85.357758 L 191.449341 103.726532 C 194.726257 104.659378 197.311813 107.219437 198.248413 110.677048 C 200.129837 117.631348 201.135422 124.946304 201.135422 132.495239 C 201.135422 140.044174 200.130585 147.360641 198.249161 154.313431 C 197.060608 158.703918 193.212296 161.648651 188.663589 161.648651 L 184.580551 161.648651 C 180.912201 170.035919 175.708847 177.599854 169.324478 183.983475 C 166.366989 186.940964 163.156036 189.645752 159.726883 192.061066 L 174.698761 217.992294 L 207.408066 199.108337 C 211.515091 196.737274 214.744034 193.518082 216.948639 189.712479 C 219.130005 185.929398 220.295319 181.523926 220.295319 176.753998 L 220.295319 88.237244 C 220.295319 83.467331 219.130005 79.061829 216.942627 75.282516 C 214.744034 71.47319 211.515091 68.25325 207.408066 65.882919 L 169.080002 43.754272 L 169.06575 43.754272 L 130.737732 21.625641 C 126.631447 19.254562 122.231956 18.069031 117.83699 18.069031 C 113.441994 18.069031 109.042534 19.254562 104.936249 21.625641 L 66.608192 43.754272 L 66.593941 43.754272 Z M 216.948639 75.278778 Z M 216.942627 189.70874 Z M 18.725307 189.712479 Z M 69.549919 95.442749 C 88.289146 78.709412 147.384796 78.709412 166.124023 95.442749 C 178.749573 106.149353 180.546997 134.654877 172.79335 154.640381 C 156.67868 196.18985 74.946724 195.241257 61.344875 150.167389 C 55.444908 130.613815 57.84071 105.373978 69.549919 95.442749 M 153.814178 195.815674 L 156.299988 200.122162 C 144.352356 206.809479 131.074402 210.153915 117.787491 210.153915 C 104.439072 210.153915 91.100395 206.778015 79.109985 200.028442 L 81.575577 195.652954 C 92.252968 201.796616 104.634796 205.309753 117.83699 205.309753 C 130.922195 205.309753 143.201294 201.858856 153.814178 195.815674 M 159.801132 206.186371 C 147.804718 212.923172 134.598022 216.564529 121.302124 217.109711 L 121.302124 246.67627 C 124.530304 246.217346 127.716499 245.115784 130.737732 243.365601 L 168.633835 221.485168 Z M 130.74147 243.371597 Z M 117.83699 65.814682 C 99.423935 65.814682 82.752861 73.278854 70.686737 85.344986 C 58.620605 97.411865 51.156391 114.081467 51.156391 132.495239 C 51.156391 150.909027 58.620605 167.579376 70.686737 179.64624 C 82.752861 191.712372 99.423935 199.175842 117.83699 199.175842 C 136.250763 199.175842 152.921082 191.712372 164.987213 179.64624 C 177.053375 167.579376 184.517563 150.909027 184.517563 132.495239 C 184.517563 114.081467 177.053375 97.411865 164.987213 85.344986 C 152.921082 73.278854 136.250763 65.814682 117.83699 65.814682 M 18.731316 75.282516 Z"/>
            </g>
            <g id="g26-copy">
                <path id="path28" fill="#ffffff" fill-rule="evenodd" stroke="none" d="M 155.925278 96.038956 C 144.630768 91.099579 126.296463 88.681229 109.205475 89.707825 C 132.197937 91.383759 146.506195 99.805542 152.129456 114.970886 C 157.643997 129.846802 156.770401 157.879883 146.907364 170.818115 C 155.815811 166.588867 162.896805 160.107727 166.289246 151.36203 C 168.415863 145.878983 169.659882 139.951294 170.212524 134.103806 C 170.641464 129.566315 170.653442 123.086716 169.683868 116.847061 C 168.073181 106.485367 163.395462 99.306137 155.925278 96.038956"/>
            </g>
            <g id="g30-copy">
                <path id="path32" fill="#ffffff" fill-rule="evenodd" stroke="none" d="M 172.65741 37.410538 L 131.641846 13.730423 C 127.24836 11.192856 122.539932 9.92485 117.836754 9.92485 C 113.134323 9.92485 108.426651 11.192856 104.03241 13.730423 L 63.016838 37.410538 L 63.001839 37.410538 L 21.986269 61.089905 C 17.591305 63.627441 14.135886 67.072357 11.78282 71.148636 L 11.776058 71.144897 C 9.442455 75.193436 8.19545 79.907089 8.19545 85.011475 L 8.19545 179.734131 C 8.19545 184.83847 9.442455 189.552917 11.776058 193.601456 L 11.78282 193.597702 C 14.135886 197.673248 17.591305 201.118881 21.986269 203.655701 L 63.001839 227.335815 L 63.016838 227.335815 L 104.03241 251.0159 L 104.027908 251.022644 C 108.419884 253.554214 113.128319 254.821503 117.836754 254.821503 C 122.545181 254.821503 127.255089 253.554214 131.645584 251.022644 L 131.641846 251.0159 L 172.65741 227.335815 L 172.672424 227.335815 L 213.687988 203.655701 C 218.082947 201.118881 221.538376 197.673248 223.890686 193.597702 L 223.897446 193.601456 C 226.231049 189.552917 227.478088 184.83847 227.478088 179.734131 L 227.478088 85.011475 C 227.478088 79.907089 226.231049 75.193436 223.897446 71.144897 L 223.890686 71.148636 C 221.538376 67.072357 218.082947 63.627441 213.687988 61.089905 L 172.672424 37.410538 Z M 135.403183 7.237305 L 176.418747 30.917419 L 176.415009 30.924179 L 217.419327 54.597534 C 222.998367 57.818192 227.38884 62.198944 230.383804 67.387299 L 230.383804 67.402298 C 233.393051 72.614609 235 78.60231 235 85.011475 L 235 179.734131 C 235 186.14325 233.393051 192.130951 230.383804 197.344055 L 230.383804 197.358307 C 227.38884 202.546646 222.998367 206.927368 217.419327 210.148819 L 176.415009 233.821411 L 176.418747 233.828171 L 135.403183 257.509003 L 135.388184 257.509003 C 129.8069 260.731201 123.821465 262.342682 117.836754 262.342682 C 111.852791 262.342682 105.868103 260.731201 100.286072 257.509003 L 100.271072 257.509003 L 59.255505 233.828171 L 59.259243 233.821411 L 18.254936 210.148819 C 12.675166 206.927368 8.285419 202.546646 5.290452 197.358307 L 5.290452 197.344055 C 2.28124 192.130951 0.674255 186.14325 0.674255 179.734131 L 0.674255 85.011475 C 0.674255 78.60231 2.28124 72.614609 5.290452 67.402298 L 5.290452 67.387299 C 8.285419 62.198944 12.675166 57.818192 18.254936 54.597534 L 59.259243 30.924179 L 59.255505 30.917419 L 100.271072 7.237305 C 105.852348 4.014374 111.842316 2.402893 117.836754 2.402893 C 123.83046 2.402893 129.822662 4.014374 135.403183 7.237305"/>
            </g>
            <g id="g76-copy">
                <path id="path78" fill="#ffffff" fill-rule="evenodd" stroke="none" d="M 104.837837 243.364929 L 66.941742 221.485992 L 75.775192 206.186432 C 87.770851 212.923248 100.977539 216.563858 114.2742 217.109772 L 114.2742 246.676346 C 111.045265 246.217422 107.859062 245.115112 104.837837 243.364929"/>
            </g>
        </g>
    </g>
</svg>
